<?xml version="1.0" encoding="UTF-8"?>
<svg width="26px" height="25px" viewBox="0 0 26 25" version="1.1" xmlns="http://www.w3.org/2000/svg" xmlns:xlink="http://www.w3.org/1999/xlink">
    <!-- Generator: Sketch 48.1 (47250) - http://www.bohemiancoding.com/sketch -->
    <title>icon-wx-zhuanyi@2x</title>
    <desc>Created with Sketch.</desc>
    <defs>
        <linearGradient x1="50%" y1="0%" x2="50%" y2="100%" id="linearGradient-1">
            <stop stop-color="#FEA702" offset="0%"></stop>
            <stop stop-color="#FF7F03" offset="100%"></stop>
        </linearGradient>
    </defs>
    <g id="申请" stroke="none" stroke-width="1" fill="none" fill-rule="evenodd" transform="translate(-129.000000, -118.000000)">
        <g id="业务编号提示" transform="translate(0.000000, 69.000000)">
            <g id="转移登记" transform="translate(94.000000, 26.000000)">
                <g id="icon-wx-zhuanyi" transform="translate(31.000000, 20.000000)">
                    <rect id="Rectangle-12" fill="#D8D8D8" opacity="0" x="0" y="0" width="34" height="34"></rect>
                    <ellipse id="Oval-Copy" fill="url(#linearGradient-1)" cx="19.5" cy="13.7058824" rx="10.5" ry="10.7058824"></ellipse>
                    <path d="M25.8708247,23.9115178 L23.5804962,20.5990016 C23.4903496,20.4725259 23.3022539,20.3767432 23.0730493,20.3422723 C22.8457386,20.3097027 22.6028227,20.3422723 22.4226053,20.4342523 L17.7557662,22.7754346 C17.5441364,22.8807981 17.452096,23.0436213 17.5127998,23.2045925 C17.5774679,23.3635637 17.7871029,23.490064 18.0535528,23.5283376 L19.2859093,23.7084456 C18.0613807,25.1146909 16.4391972,25.9691547 14.8561278,25.9691547 C11.7723328,25.9691547 8.33194137,22.6604658 8.33194137,17.918666 C8.33194137,17.3592298 7.56392807,16.9013296 6.61567218,16.9013296 C5.66741628,16.9013296 4.89940299,17.3592298 4.89940299,17.918666 C4.89940299,23.5705126 9.27234416,28 14.8561025,28 C18.0104239,28 20.8434498,26.6071875 22.6909492,24.2103974 L25.0537737,24.5590574 C25.1144774,24.5667615 25.1732621,24.5705641 25.2320719,24.5705641 C25.2359606,24.5705641 25.2359606,24.5705641 25.2418694,24.5705641 C25.6474279,24.5705641 25.9765764,24.3770727 25.9765764,24.1376036 C25.9765764,24.0532782 25.9373867,23.978583 25.8708247,23.9115178 Z M6.98401049,14.73065 C6.75478068,14.696179 6.56474064,14.604199 6.47656367,14.4739454 L4.14315673,11.1038953 C4.03737972,10.9525295 4.08831126,10.7743474 4.26852861,10.6536499 C4.44879647,10.5271989 4.73484134,10.4754925 5.00129132,10.5137908 L7.36606018,10.8624754 C9.21361002,8.46956208 12.0466107,7.07097153 15.2009573,7.07097153 C20.7846904,7.07097153 25.1576316,11.5023849 25.1576316,17.1542316 C25.1576316,17.7174951 24.3896436,18.1715679 23.4413372,18.1715679 C22.4931065,18.1715679 21.7250932,17.7174951 21.7250932,17.1542316 C21.7250932,12.4124318 18.2866713,9.10371819 15.2009573,9.10371819 C13.6179131,9.10371819 11.9956539,9.95818195 10.7711506,11.3644519 L12.003507,11.5445599 C12.2719013,11.5886116 12.4795919,11.7093092 12.5442348,11.8683297 C12.6069334,12.0292763 12.5128729,12.1978528 12.3013189,12.3032163 L7.63251016,14.642522 C7.49928517,14.7095625 7.33078434,14.7421567 7.16033917,14.7421567 C7.09961019,14.7421567 7.04082555,14.7383047 6.98401049,14.73065 Z" id="Shape" fill="#FFEEB8" fill-rule="nonzero"></path>
                </g>
            </g>
        </g>
    </g>
</svg>